# Blender v2.63 (sub 0) OBJ File: ''
# www.blender.org
o Mesh_object0
v -0.273295 0.473360 0.772995
v -0.273295 -0.473361 0.772995
v 0.546590 -0.000000 0.772995
v 0.819885 0.473361 0.000000
v 0.819885 -0.473361 -0.000000
v 0.000000 -0.946721 -0.000000
v -0.819885 -0.473361 -0.000000
v -0.819885 0.473361 0.000000
v 0.000000 0.946721 0.000000
vn 0.000000 -0.000000 1.000000
vn -0.816497 -0.000000 0.577350
vn 0.408248 -0.707107 0.577350
vn 0.408248 0.707107 0.577350
vn -0.471404 0.816496 0.333333
vn -0.471404 -0.816497 0.333333
vn 0.942809 -0.000000 0.333333
vn 0.000000 0.000000 -1.000000
s off
f 1//1 2//1 3//1
f 2//2 1//2 8//2
f 2//2 8//2 7//2
f 3//3 2//3 6//3
f 3//3 6//3 5//3
f 1//4 3//4 4//4
f 1//4 4//4 9//4
f 8//5 1//5 9//5
f 7//6 6//6 2//6
f 5//7 4//7 3//7
f 8//8 9//8 4//8
f 7//8 8//8 4//8
f 7//8 4//8 5//8
f 6//8 7//8 5//8
